<svg width="63" height="53" viewBox="0 0 63 53" fill="none" xmlns="http://www.w3.org/2000/svg">
<g clip-path="url(#clip0_1270_530)">
<path d="M47.3808 13.9754C44.5726 9.18495 40.2437 5.47066 35.0822 3.42292C29.9207 1.37518 24.2228 1.1115 18.8942 2.67381C13.5657 4.23612 8.91225 7.53474 5.67362 12.0453C2.43499 16.556 0.797037 22.0197 1.02011 27.5681C1.24319 33.1165 3.31449 38.4311 6.90478 42.6672C10.4951 46.9032 15.3983 49.8176 20.8351 50.9471C26.2719 52.0766 31.9302 51.3563 36.9106 48.9008C41.8911 46.4453 45.9078 42.3955 48.3224 37.3951L47.5505 37.0223C45.2191 41.8506 41.3406 45.761 36.5316 48.132C31.7226 50.503 26.2591 51.1984 21.0094 50.1078C15.7598 49.0172 11.0254 46.2032 7.55869 42.1129C4.09199 38.0227 2.09199 32.891 1.8766 27.5337C1.6612 22.1763 3.24277 16.9006 6.36991 12.5453C9.49705 8.18996 13.9903 5.00489 19.1354 3.49636C24.2805 1.98784 29.7823 2.24244 34.7661 4.21969C39.7499 6.19693 43.9298 9.78336 46.6413 14.4089L47.3808 13.9754Z" fill="#D9D9D9" stroke="white" stroke-width="1.5367"/>
<path d="M62.0532 27.3802C62.5033 26.9301 62.5033 26.2003 62.0532 25.7503L54.7186 18.4156C54.2685 17.9656 53.5388 17.9656 53.0887 18.4156C52.6386 18.8657 52.6386 19.5955 53.0887 20.0456L59.6084 26.5652L53.0887 33.0849C52.6386 33.5349 52.6386 34.2647 53.0887 34.7148C53.5388 35.1649 54.2685 35.1649 54.7186 34.7148L62.0532 27.3802ZM40.832 27.7177H61.2383V25.4127H40.832V27.7177Z" fill="white"/>
</g>
<defs>
<clipPath id="clip0_1270_530">
<rect width="63" height="53" fill="white"/>
</clipPath>
</defs>
</svg>
