<svg width="63" height="53" viewBox="0 0 63 53" fill="none" xmlns="http://www.w3.org/2000/svg">
<path d="M47.3808 13.9754C44.5726 9.18494 40.2437 5.47065 35.0822 3.42291C29.9207 1.37517 24.2228 1.11149 18.8942 2.6738C13.5657 4.23611 8.91224 7.53473 5.67361 12.0453C2.43498 16.556 0.797026 22.0197 1.0201 27.5681C1.24318 33.1165 3.31448 38.4311 6.90477 42.6672C10.4951 46.9032 15.3983 49.8176 20.8351 50.9471C26.2719 52.0766 31.9302 51.3563 36.9106 48.9008C41.8911 46.4453 45.9078 42.3955 48.3224 37.3951L47.5505 37.0223C45.2191 41.8506 41.3406 45.761 36.5316 48.132C31.7226 50.503 26.2591 51.1984 21.0094 50.1078C15.7598 49.0172 11.0254 46.2032 7.55868 42.1129C4.09198 38.0227 2.09198 32.891 1.87659 27.5337C1.66119 22.1763 3.24276 16.9006 6.3699 12.5453C9.49704 8.18995 13.9903 5.00488 19.1354 3.49635C24.2805 1.98783 29.7823 2.24243 34.7661 4.21968C39.7499 6.19692 43.9298 9.78335 46.6413 14.4089L47.3808 13.9754Z" fill="#D9D9D9" stroke="black" stroke-width="1.5367"/>
<path d="M62.0532 27.3814C62.5033 26.9313 62.5033 26.2015 62.0532 25.7515L54.7186 18.4168C54.2685 17.9668 53.5388 17.9668 53.0887 18.4168C52.6386 18.8669 52.6386 19.5967 53.0887 20.0468L59.6084 26.5664L53.0887 33.0861C52.6386 33.5361 52.6386 34.2659 53.0887 34.716C53.5388 35.1661 54.2685 35.1661 54.7186 34.716L62.0532 27.3814ZM40.832 27.7189L61.2383 27.7189L61.2383 25.4139L40.832 25.4139L40.832 27.7189Z" fill="black"/>
</svg>
