<svg width="380" height="78" viewBox="0 0 380 78" fill="none" xmlns="http://www.w3.org/2000/svg">
<path d="M103.003 51.8845L96.9406 42.4636H90.6347V51.8668H86.7676V26.5205H98.6477C101.139 26.5205 103.125 27.3336 104.605 28.9597C106.086 30.5858 106.835 32.4417 106.835 34.5451C106.835 36.2772 106.33 37.8503 105.302 39.282C104.274 40.7137 102.846 41.6682 101.017 42.1454L107.462 51.8845H103.003ZM90.6347 30.0379L90.5999 38.9639H98.4039C99.8148 38.9639 100.947 38.522 101.801 37.6559C102.654 36.7898 103.09 35.747 103.09 34.5274C103.09 33.3078 102.672 32.2473 101.836 31.3635C100.999 30.4798 99.9019 30.0379 98.5432 30.0379H90.6347Z" fill="white"/>
<path d="M130.254 30.0909H116.075V37.3024H128.425V40.6961H116.075V48.2964H130.22V51.8845H112.26V26.5382H130.254V30.0909Z" fill="white"/>
<path d="M156.757 26.5382H160.468V51.8845H156.583V33.3432L148.013 45.5214L139.495 33.3432V51.8845H135.593V26.5382H139.303L148.048 39.282L156.757 26.5382Z" fill="white"/>
<path d="M178.435 52.3618V52.3794C174.725 52.3794 171.624 51.1245 169.133 48.5969C166.642 46.0694 165.405 42.9408 165.405 39.1937C165.405 35.4465 166.642 32.318 169.115 29.8258C171.589 27.3336 174.69 26.0786 178.418 26.0786C182.128 26.0786 185.229 27.3336 187.702 29.8258C190.176 32.318 191.413 35.4288 191.413 39.176C191.413 42.9232 190.176 46.0517 187.702 48.5792C185.229 51.1068 182.145 52.3618 178.435 52.3618ZM178.435 48.756V48.7913C181.118 48.7913 183.312 47.8722 185.002 46.0163C186.692 44.1604 187.545 41.8803 187.545 39.176C187.545 36.5247 186.692 34.2799 184.985 32.4594C183.278 30.6388 181.1 29.7197 178.435 29.7197C175.752 29.7197 173.557 30.6212 171.85 32.4417C170.143 34.2623 169.29 36.4894 169.29 39.1406C169.29 41.845 170.143 44.1251 171.85 45.981C173.557 47.8369 175.752 48.756 178.435 48.756Z" fill="white"/>
<path d="M214.118 26.5382V30.0909H205.338V51.8845H201.454V30.0909H192.64V26.5382H214.118Z" fill="white"/>
<path d="M236.196 30.0909H222.017V37.3024H234.367V40.6961H222.017V48.2964H236.161V51.8845H218.202V26.5382H236.196V30.0909Z" fill="white"/>
<path d="M264.14 52.2734V52.2911C260.499 52.2911 257.468 51.0361 255.029 48.5085C252.59 45.981 251.371 42.8525 251.371 39.1053C251.371 35.4112 252.59 32.318 255.029 29.8258C257.468 27.3336 260.499 26.0786 264.14 26.0786C267.745 26.0786 270.776 27.3336 273.215 29.8258C275.654 32.318 276.873 35.4112 276.873 39.1053C276.873 42.8348 275.654 45.9633 273.215 48.4909C270.776 51.0184 267.745 52.2734 264.14 52.2734ZM264.14 50.5766H264.087C267.293 50.5766 269.923 49.463 271.978 47.2359C274.034 45.0088 275.062 42.2868 275.062 39.0876C275.062 35.9768 274.034 33.3078 271.996 31.0984C269.958 28.889 267.327 27.7754 264.122 27.7754C260.917 27.7754 258.287 28.8713 256.231 31.0807C254.176 33.2901 253.148 35.9414 253.148 39.0523C253.148 42.2868 254.176 45.0088 256.214 47.2359C258.252 49.463 260.9 50.5766 264.14 50.5766Z" fill="white"/>
<path d="M299.283 28.1996H284.215V38.3629H297.454V39.9891H284.215V51.8315H282.403V26.4851H299.283V28.1996Z" fill="white"/>
<path d="M320.803 28.1996H305.735V38.3629H318.974V39.9891H305.735V51.8315H303.924V26.4851H320.803V28.1996Z" fill="white"/>
<path d="M325.445 51.8315V26.4851H327.256V51.8315H325.445Z" fill="white"/>
<path d="M345.624 52.2734L345.589 52.2911C341.931 52.2911 338.883 51.0361 336.427 48.5085C333.971 45.981 332.751 42.8525 332.751 39.1053C332.751 35.4112 333.971 32.318 336.427 29.8258C338.883 27.3336 341.931 26.0786 345.589 26.0786C348.289 26.0786 350.676 26.7503 352.749 28.0936C354.822 29.4369 356.285 31.2044 357.139 33.4139L355.397 33.8381C354.665 32.0175 353.428 30.5505 351.686 29.4369C349.944 28.3234 347.906 27.7578 345.572 27.7578C342.332 27.7578 339.684 28.8536 337.629 31.063C335.573 33.2725 334.545 35.9237 334.545 39.0346C334.545 42.2692 335.573 44.9912 337.629 47.2182C339.684 49.4453 342.332 50.5589 345.589 50.5589C347.924 50.5589 349.962 50.0109 351.686 48.8974C353.411 47.7839 354.648 46.3168 355.397 44.4786L357.104 44.9558C356.215 47.1475 354.752 48.9151 352.697 50.2584C350.641 51.6017 348.289 52.2734 345.624 52.2734Z" fill="white"/>
<path d="M380.001 28.1996H364.654V38.1508H378.172V39.7416H364.654V50.1347H379.966V51.8315H362.842V26.4851H380.001V28.1996Z" fill="white"/>
<path d="M29.5131 3.61491C30.1619 3.25248 30.9586 3.25248 31.6074 3.61491L45.7296 11.5041L59.325 19.2389L49.9095 24.5205L49.8377 34.5055C49.8193 37.0643 48.4371 39.429 46.1901 40.7457C44.5016 41.7352 42.3517 40.555 42.3401 38.6321L42.2813 28.9582L30.5203 35.4418L23.4765 31.4268L27.6091 29.0361C31.2834 26.9104 31.3522 21.7414 27.7356 19.5234C24.3632 17.4551 20.0926 17.3907 16.6564 19.3562L9.33809 23.5423L1.75795 19.2603L15.4017 11.498L29.5131 3.61491Z" fill="white"/>
<path d="M0.304399 22.0075L0.243217 37.1357L0.307419 53.0105C0.31037 53.7404 0.708753 54.4141 1.35457 54.7816L15.3909 62.7672L15.4125 62.7794L28.9213 70.3258V62.3036L21.5477 57.9418C18.0965 55.9002 16.0525 52.1899 16.2101 48.2527C16.384 43.908 21.2394 41.3133 25.0808 43.5124L28.942 45.7228L28.9431 38.1193L17.2367 31.4464L25.9968 26.3787C27.6345 25.4313 27.6651 23.1275 26.0532 22.139C23.6796 20.6832 20.6737 20.6379 18.2552 22.0213L9.34803 27.1162L0.304399 22.0075Z" fill="white"/>
<path d="M32.0844 70.3899L45.708 62.7794L45.7296 62.7672L59.7659 54.7816C60.4118 54.4141 60.8101 53.7404 60.8131 53.0105L60.8773 37.1479V37.1235L60.8159 21.9646L53.0598 26.3154L53.0007 34.5272C52.9746 38.1631 51.0106 41.5231 47.8178 43.3941C44.0282 45.6149 39.2032 42.9661 39.177 38.6504L39.1502 34.2313L32.1062 38.1145L32.1043 51.1136L23.481 46.1769C21.7011 45.158 19.4514 46.3602 19.3708 48.3734C19.2581 51.188 20.7194 53.8405 23.1866 55.3L32.0844 60.5635L32.0844 70.3899Z" fill="#A4DC1B"/>
</svg>
