<svg width="383" height="78" viewBox="0 0 383 78" fill="none" xmlns="http://www.w3.org/2000/svg">
<path d="M106.004 51.884L99.9416 42.4631H93.6357V51.8664H89.7686V26.52H101.649C104.14 26.52 106.126 27.3331 107.606 28.9592C109.087 30.5853 109.836 32.4412 109.836 34.5446C109.836 36.2768 109.331 37.8499 108.303 39.2816C107.275 40.7133 105.847 41.6677 104.018 42.145L110.463 51.884H106.004ZM93.6357 30.0374L93.6009 38.9634H101.405C102.816 38.9634 103.948 38.5215 104.802 37.6554C105.655 36.7893 106.091 35.7465 106.091 34.5269C106.091 33.3073 105.673 32.2468 104.836 31.363C104 30.4793 102.903 30.0374 101.544 30.0374H93.6357Z" fill="black"/>
<path d="M133.255 30.0904H119.076V37.3019H131.426V40.6956H119.076V48.296H133.221V51.884H115.261V26.5377H133.255V30.0904Z" fill="black"/>
<path d="M159.758 26.5377H163.469V51.884H159.584V33.3427L151.014 45.5209L142.496 33.3427V51.884H138.594V26.5377H142.304L151.049 39.2816L159.758 26.5377Z" fill="black"/>
<path d="M181.436 52.3613V52.3789C177.726 52.3789 174.625 51.124 172.134 48.5964C169.643 46.0689 168.406 42.9403 168.406 39.1932C168.406 35.446 169.643 32.3175 172.116 29.8253C174.59 27.3331 177.691 26.0781 181.418 26.0781C185.129 26.0781 188.23 27.3331 190.703 29.8253C193.177 32.3175 194.413 35.4283 194.413 39.1755C194.413 42.9227 193.177 46.0512 190.703 48.5788C188.23 51.1063 185.146 52.3613 181.436 52.3613ZM181.436 48.7555V48.7909C184.119 48.7909 186.313 47.8717 188.003 46.0158C189.693 44.1599 190.546 41.8798 190.546 39.1755C190.546 36.5242 189.693 34.2795 187.986 32.4589C186.279 30.6383 184.101 29.7192 181.436 29.7192C178.753 29.7192 176.558 30.6207 174.851 32.4412C173.144 34.2618 172.291 36.4889 172.291 39.1402C172.291 41.8445 173.144 44.1246 174.851 45.9805C176.558 47.8364 178.753 48.7555 181.436 48.7555Z" fill="black"/>
<path d="M217.119 26.5377V30.0904H208.339V51.884H204.455V30.0904H195.641V26.5377H217.119Z" fill="black"/>
<path d="M239.197 30.0904H225.018V37.3019H237.368V40.6956H225.018V48.296H239.162V51.884H221.203V26.5377H239.197V30.0904Z" fill="black"/>
<path d="M267.139 52.2729V52.2906C263.498 52.2906 260.467 51.0356 258.028 48.5081C255.589 45.9805 254.37 42.852 254.37 39.1048C254.37 35.4107 255.589 32.3175 258.028 29.8253C260.467 27.3331 263.498 26.0781 267.139 26.0781C270.745 26.0781 273.776 27.3331 276.214 29.8253C278.653 32.3175 279.872 35.4107 279.872 39.1048C279.872 42.8343 278.653 45.9628 276.214 48.4904C273.776 51.0179 270.745 52.2729 267.139 52.2729ZM267.139 50.5761H267.086C270.292 50.5761 272.922 49.4625 274.977 47.2354C277.033 45.0083 278.061 42.2864 278.061 39.0871C278.061 35.9763 277.033 33.3073 274.995 31.0979C272.957 28.8885 270.326 27.775 267.121 27.775C263.916 27.775 261.286 28.8708 259.23 31.0802C257.175 33.2896 256.147 35.9409 256.147 39.0518C256.147 42.2864 257.175 45.0083 259.213 47.2354C261.251 49.4625 263.899 50.5761 267.139 50.5761Z" fill="black"/>
<path d="M302.282 28.1992H287.214V38.3624H300.453V39.9886H287.214V51.831H285.402V26.4847H302.282V28.1992Z" fill="black"/>
<path d="M323.802 28.1992H308.735V38.3624H321.973V39.9886H308.735V51.831H306.923V26.4847H323.802V28.1992Z" fill="black"/>
<path d="M328.444 51.831V26.4847H330.255V51.831H328.444Z" fill="black"/>
<path d="M348.623 52.2729L348.588 52.2906C344.93 52.2906 341.882 51.0356 339.426 48.5081C336.97 45.9805 335.75 42.852 335.75 39.1048C335.75 35.4107 336.97 32.3175 339.426 29.8253C341.882 27.3331 344.93 26.0781 348.588 26.0781C351.288 26.0781 353.675 26.7498 355.748 28.0931C357.821 29.4364 359.284 31.204 360.138 33.4134L358.396 33.8376C357.664 32.017 356.427 30.55 354.685 29.4364C352.943 28.3229 350.905 27.7573 348.571 27.7573C345.331 27.7573 342.683 28.8531 340.628 31.0626C338.572 33.272 337.544 35.9233 337.544 39.0341C337.544 42.2687 338.572 44.9907 340.628 47.2178C342.683 49.4448 345.331 50.5584 348.588 50.5584C350.923 50.5584 352.961 50.0105 354.685 48.8969C356.41 47.7834 357.647 46.3163 358.396 44.4781L360.103 44.9553C359.214 47.1471 357.751 48.9146 355.696 50.2579C353.64 51.6012 351.288 52.2729 348.623 52.2729Z" fill="black"/>
<path d="M383 28.1992H367.653V38.1503H381.171V39.7411H367.653V50.1342H382.965V51.831H365.841V26.4847H383V28.1992Z" fill="black"/>
<path d="M32.5136 3.61442C33.1624 3.252 33.9591 3.252 34.6079 3.61442L48.7301 11.5036L62.3255 19.2384L52.91 24.52L52.8381 34.505C52.8197 37.0638 51.4376 39.4285 49.1906 40.7452C47.5021 41.7348 45.3522 40.5545 45.3405 38.6316L45.2818 28.9577L33.5207 35.4414L26.477 31.4263L30.6096 29.0356C34.2839 26.91 34.3527 21.7409 30.7361 19.5229C27.3637 17.4546 23.0931 17.3902 19.6569 19.3557L12.3386 23.5418L4.75844 19.2598L18.4022 11.4976L32.5136 3.61442Z" fill="#092C2F"/>
<path d="M3.30489 22.007L3.24371 37.1352L3.30791 53.01C3.31086 53.7399 3.70924 54.4137 4.35506 54.7811L18.3914 62.7667L18.413 62.7789L31.9218 70.3253V62.3031L24.5482 57.9413C21.097 55.8997 19.053 52.1894 19.2106 48.2522C19.3845 43.9075 24.2399 41.3128 28.0813 43.5119L31.9425 45.7224L31.9436 38.1188L20.2372 31.4459L28.9973 26.3782C30.635 25.4308 30.6656 23.127 29.0537 22.1385C26.6801 20.6827 23.6742 20.6374 21.2557 22.0208L12.3485 27.1157L3.30489 22.007Z" fill="#092C2F"/>
<path d="M35.0849 70.3895L48.7085 62.7789L48.7301 62.7667L62.7664 54.7811C63.4122 54.4137 63.8106 53.7399 63.8136 53.01L63.8778 37.1474V37.123L63.8164 21.9641L56.0603 26.3149L56.0012 34.5267C55.975 38.1626 54.0111 41.5226 50.8183 43.3936C47.0287 45.6144 42.2037 42.9656 42.1775 38.6499L42.1507 34.2308L35.1067 38.114L35.1048 51.1131L26.4815 46.1764C24.7016 45.1575 22.4519 46.3597 22.3713 48.3729C22.2586 51.1875 23.7198 53.84 26.1871 55.2995L35.0849 60.563L35.0849 70.3895Z" fill="#A4DC1B"/>
</svg>
