<svg width="191" height="60" viewBox="0 0 191 60" fill="none" xmlns="http://www.w3.org/2000/svg">
<g filter="url(#filter0_b_1251_175)">
<rect x="0.1875" y="0.328125" width="190.461" height="58.788" rx="29.394" fill="#092C2F"/>
<path d="M35.2803 36.0342H35.248C32.917 36.0342 30.9834 35.2715 29.4365 33.7461C27.8896 32.2207 27.1162 30.3086 27.1162 28.0205C27.1162 25.7539 27.8896 23.8525 29.4258 22.3164C30.9619 20.7803 32.8848 20.0176 35.1836 20.0176C37.2246 20.0176 38.9111 20.5332 40.2432 21.5752C41.5752 22.6172 42.4131 23.8203 42.7461 25.1846L39.1797 26.0654C38.9756 25.3672 38.5137 24.7549 37.7939 24.2285C37.0742 23.7021 36.2148 23.4443 35.2158 23.4443C33.916 23.4443 32.8633 23.8848 32.0684 24.7656C31.2734 25.6465 30.876 26.7207 30.876 27.999C30.876 29.2559 31.2842 30.3408 32.0898 31.2432C32.8955 32.1455 33.9482 32.5967 35.2373 32.5967C36.2471 32.5967 37.1064 32.3389 37.8154 31.834C38.5244 31.3291 38.9863 30.7275 39.1904 30.0293L42.7568 30.9316C42.4238 32.2744 41.5967 33.4561 40.2754 34.4873C38.9541 35.5186 37.2891 36.0342 35.2803 36.0342ZM50.6034 36.0342V36.0449C48.8631 36.0449 47.4237 35.4756 46.285 34.3477C45.1463 33.2197 44.577 31.8125 44.577 30.126C44.577 28.4395 45.1463 27.0322 46.285 25.9043C47.4237 24.7764 48.8631 24.207 50.6034 24.207C52.3436 24.207 53.783 24.7656 54.9217 25.8936C56.0604 27.0215 56.6297 28.4287 56.6297 30.1152C56.6297 31.8018 56.0604 33.209 54.9217 34.3369C53.783 35.4648 52.3436 36.0342 50.6034 36.0342ZM50.6034 32.876V32.8867C51.3983 32.8867 52.0321 32.6289 52.5047 32.1133C52.9774 31.5977 53.2137 30.9316 53.2137 30.126C53.2137 29.3203 52.9774 28.665 52.5047 28.1494C52.0321 27.6338 51.3983 27.376 50.6034 27.376C49.8084 27.376 49.1746 27.6338 48.702 28.1494C48.2293 28.665 47.993 29.3203 47.993 30.126C47.993 30.9316 48.2293 31.5869 48.702 32.1025C49.1746 32.6182 49.8084 32.876 50.6034 32.876ZM72.8552 24.1963C74.2194 24.1963 75.3044 24.6152 76.11 25.4639C76.9157 26.3125 77.3239 27.5264 77.3239 29.1055V35.7227H73.8112V29.8896C73.8112 28.2676 73.2204 27.4512 72.028 27.4512C70.7282 27.4512 70.0729 28.3535 70.0622 30.1582V35.7227H66.5495V29.8896C66.5495 28.2676 65.9587 27.4512 64.7663 27.4512C63.4665 27.4512 62.8112 28.3535 62.8112 30.1582V35.7227H59.2878V24.5078H62.8112V25.6035C63.6169 24.6689 64.6481 24.1963 65.905 24.1963C67.3874 24.1963 68.4723 24.6904 69.1598 25.6895C70.0944 24.6904 71.3298 24.1963 72.8552 24.1963ZM87.2652 24.1963L87.2544 24.207C88.7798 24.207 90.0689 24.7656 91.1216 25.8936C92.1743 27.0215 92.7007 28.4287 92.7007 30.1152C92.7007 31.8018 92.1743 33.209 91.1216 34.3369C90.0689 35.4648 88.7798 36.0342 87.2544 36.0342C85.9546 36.0342 84.8804 35.583 84.0318 34.6914V40.3418H80.5083V24.5078H84.0318V25.5391C84.8589 24.6475 85.9331 24.1963 87.2652 24.1963ZM86.6099 32.9189L86.5991 32.9297C87.3618 32.9297 87.9849 32.6719 88.479 32.1455C88.9732 31.6191 89.2202 30.9424 89.2202 30.1152C89.2202 29.2881 88.9732 28.6221 88.479 28.1064C87.9849 27.5908 87.3618 27.333 86.5991 27.333C85.815 27.333 85.1704 27.5908 84.6655 28.1064C84.1607 28.6221 83.9136 29.2881 83.9136 30.1152C83.9136 30.9531 84.1714 31.6299 84.6763 32.1455C85.1812 32.6611 85.8257 32.9189 86.6099 32.9189ZM95.348 35.7227V19.6631H98.8714V35.7227H95.348ZM103.904 23.208L103.882 23.1973C103.323 23.1973 102.851 23.0039 102.453 22.6172C102.056 22.2305 101.863 21.7578 101.863 21.1992C101.863 20.6514 102.067 20.1895 102.464 19.8135C102.862 19.4375 103.334 19.2441 103.893 19.2441C104.451 19.2441 104.924 19.4375 105.321 19.8242C105.719 20.2109 105.923 20.6729 105.923 21.21C105.923 21.7686 105.73 22.2412 105.332 22.6279C104.935 23.0146 104.462 23.208 103.904 23.208ZM102.077 35.7119V24.4971H105.59V35.7119H102.077ZM113.748 36.0342H113.737C112.212 36.0342 110.923 35.4648 109.87 34.3369C108.817 33.209 108.291 31.8018 108.291 30.1152C108.291 28.4287 108.817 27.0215 109.87 25.8936C110.923 24.7656 112.212 24.1963 113.737 24.1963C115.069 24.1963 116.144 24.6475 116.971 25.5391V24.5078H120.494V35.7227H116.971V34.6914C116.122 35.583 115.048 36.0342 113.748 36.0342ZM114.382 32.9082L114.371 32.9189C115.155 32.9189 115.8 32.6611 116.305 32.1348C116.81 31.6084 117.067 30.9316 117.067 30.1045C117.067 29.2773 116.81 28.6113 116.305 28.0957C115.8 27.5801 115.155 27.3223 114.382 27.3223C113.619 27.3223 112.996 27.5801 112.502 28.0957C112.008 28.6113 111.761 29.2773 111.761 30.1045C111.761 30.9424 112.008 31.6191 112.502 32.1348C112.996 32.6504 113.619 32.9082 114.382 32.9082ZM130.64 24.1963V24.2178C132.09 24.2178 133.185 24.6689 133.916 25.5605C134.646 26.4521 135.012 27.666 135.012 29.2021V35.7334H131.499V29.9004C131.499 28.2783 130.833 27.4619 129.49 27.4619C128.813 27.4619 128.287 27.709 127.9 28.2031C127.514 28.6973 127.32 29.374 127.32 30.2441V35.7227H123.797V24.5078H127.32V25.668C128.169 24.6904 129.275 24.1963 130.64 24.1963ZM143.556 36.0342L143.546 36.0771C141.816 36.0771 140.377 35.5078 139.238 34.3799C138.099 33.252 137.53 31.8447 137.53 30.1582C137.53 28.4717 138.099 27.0645 139.227 25.9365C140.355 24.8086 141.773 24.2393 143.481 24.2393C144.974 24.2393 146.231 24.626 147.241 25.3994C148.251 26.1729 148.874 27.0537 149.11 28.0312L145.855 28.9551C145.759 28.5146 145.49 28.1387 145.06 27.8164C144.631 27.4941 144.115 27.333 143.513 27.333C142.751 27.333 142.138 27.6016 141.666 28.1387C141.193 28.6758 140.957 29.3311 140.957 30.1045C140.957 30.8779 141.193 31.5439 141.666 32.1025C142.138 32.6611 142.751 32.9404 143.513 32.9404C144.115 32.9404 144.631 32.7793 145.06 32.4678C145.49 32.1562 145.759 31.7803 145.866 31.3506L149.121 32.2744C148.884 33.252 148.272 34.1221 147.273 34.8848C146.274 35.6475 145.039 36.0342 143.556 36.0342ZM157.15 36.0342L157.139 36.0449C155.302 36.0449 153.82 35.4971 152.681 34.4014C151.543 33.3057 150.973 31.8877 150.973 30.1367C150.973 28.418 151.521 27 152.617 25.8828C153.712 24.7656 155.141 24.207 156.914 24.207C158.718 24.207 160.147 24.7549 161.2 25.8506C162.253 26.9463 162.779 28.332 162.779 30.0078C162.779 30.4482 162.747 30.835 162.693 31.168H154.4C154.669 32.457 155.603 33.1016 157.204 33.1016C158.278 33.1016 159.03 32.7256 159.449 31.9629L162.618 32.8867C162.263 33.6924 161.608 34.4229 160.641 35.0674C159.674 35.7119 158.514 36.0342 157.15 36.0342ZM154.411 29.0625H159.352C159.298 28.5361 159.051 28.085 158.6 27.709C158.149 27.333 157.58 27.1504 156.892 27.1504C156.205 27.1504 155.635 27.3438 155.195 27.7197C154.754 28.0957 154.497 28.5469 154.411 29.0625Z" fill="white"/>
</g>
<defs>
<filter id="filter0_b_1251_175" x="-14.0206" y="-13.88" width="218.877" height="87.2053" filterUnits="userSpaceOnUse" color-interpolation-filters="sRGB">
<feFlood flood-opacity="0" result="BackgroundImageFix"/>
<feGaussianBlur in="BackgroundImageFix" stdDeviation="7.10406"/>
<feComposite in2="SourceAlpha" operator="in" result="effect1_backgroundBlur_1251_175"/>
<feBlend mode="normal" in="SourceGraphic" in2="effect1_backgroundBlur_1251_175" result="shape"/>
</filter>
</defs>
</svg>
