<svg width="262" height="60" viewBox="0 0 262 60" fill="none" xmlns="http://www.w3.org/2000/svg">
<g filter="url(#filter0_b_1251_173)">
<rect x="0.742188" y="0.824219" width="260.461" height="58.788" rx="29.394" fill="#D7F427"/>
<path d="M40.7656 20.8145V24.123H35.8564V36.2188H32.2041V24.123H27.3057V20.8145H40.7656ZM45.6473 36.5303H45.6366C44.1112 36.5303 42.8221 35.9609 41.7694 34.833C40.7166 33.7051 40.1903 32.2979 40.1903 30.6113C40.1903 28.9248 40.7166 27.5176 41.7694 26.3896C42.8221 25.2617 44.1112 24.6924 45.6366 24.6924C46.9686 24.6924 48.0428 25.1436 48.87 26.0352V25.0039H52.3934V36.2188H48.87V35.1875C48.0213 36.0791 46.9471 36.5303 45.6473 36.5303ZM46.2811 33.4043L46.2704 33.415C47.0545 33.415 47.6991 33.1572 48.2039 32.6309C48.7088 32.1045 48.9666 31.4277 48.9666 30.6006C48.9666 29.7734 48.7088 29.1074 48.2039 28.5918C47.6991 28.0762 47.0545 27.8184 46.2811 27.8184C45.5184 27.8184 44.8954 28.0762 44.4012 28.5918C43.9071 29.1074 43.66 29.7734 43.66 30.6006C43.66 31.4385 43.9071 32.1152 44.4012 32.6309C44.8954 33.1465 45.5184 33.4043 46.2811 33.4043ZM55.696 36.2188V20.1592H59.2194V36.2188H55.696ZM68.022 36.5303L68.0112 36.541C66.1743 36.541 64.6919 35.9932 63.5532 34.8975C62.4146 33.8018 61.8452 32.3838 61.8452 30.6328C61.8452 28.9141 62.3931 27.4961 63.4888 26.3789C64.5845 25.2617 66.0132 24.7031 67.7857 24.7031C69.5904 24.7031 71.0191 25.251 72.0718 26.3467C73.1245 27.4424 73.6509 28.8281 73.6509 30.5039C73.6509 30.9443 73.6187 31.3311 73.565 31.6641H65.272C65.5405 32.9531 66.4751 33.5977 68.0757 33.5977C69.1499 33.5977 69.9019 33.2217 70.3208 32.459L73.4898 33.3828C73.1353 34.1885 72.48 34.9189 71.5132 35.5635C70.5464 36.208 69.3862 36.5303 68.022 36.5303ZM65.2827 29.5586H70.2241C70.1704 29.0322 69.9234 28.5811 69.4722 28.2051C69.021 27.8291 68.4517 27.6465 67.7642 27.6465C67.0767 27.6465 66.5073 27.8398 66.0669 28.2158C65.6265 28.5918 65.3687 29.043 65.2827 29.5586ZM83.1517 24.6924V24.7139C84.6019 24.7139 85.6976 25.165 86.4281 26.0566C87.1586 26.9482 87.5238 28.1621 87.5238 29.6982V36.2295H84.0111V30.3965C84.0111 28.7744 83.3451 27.958 82.0023 27.958C81.3255 27.958 80.7992 28.2051 80.4125 28.6992C80.0257 29.1934 79.8324 29.8701 79.8324 30.7402V36.2188H76.3089V25.0039H79.8324V26.1641C80.681 25.1865 81.7875 24.6924 83.1517 24.6924ZM97.2287 33.0498L98.0773 35.8535C97.1535 36.2188 96.2404 36.4014 95.3273 36.4014C94.0061 36.4014 93.0178 36.0254 92.3518 35.2734C91.6857 34.5215 91.3527 33.4902 91.3527 32.1689V28.0762H89.6125V25.0039H91.3527V21.4805H94.8762V25.0039H97.8947V28.0762H94.8762V32.1689C94.8762 32.9531 95.2629 33.3398 96.0363 33.3398C96.466 33.3398 96.8635 33.2432 97.2287 33.0498ZM117.541 36.2188L116.467 33.2754H109.957L108.872 36.2188H105.112L110.806 20.8145H115.607L121.301 36.2188H117.541ZM111.117 30.085H115.296L113.212 24.3164L111.117 30.085ZM128.299 36.5303L128.288 36.5732C126.558 36.5732 125.119 36.0039 123.98 34.876C122.842 33.748 122.272 32.3408 122.272 30.6543C122.272 28.9678 122.842 27.5605 123.969 26.4326C125.097 25.3047 126.515 24.7354 128.223 24.7354C129.717 24.7354 130.973 25.1221 131.983 25.8955C132.993 26.6689 133.616 27.5498 133.852 28.5273L130.597 29.4512C130.501 29.0107 130.232 28.6348 129.802 28.3125C129.373 27.9902 128.857 27.8291 128.256 27.8291C127.493 27.8291 126.881 28.0977 126.408 28.6348C125.935 29.1719 125.699 29.8271 125.699 30.6006C125.699 31.374 125.935 32.04 126.408 32.5986C126.881 33.1572 127.493 33.4365 128.256 33.4365C128.857 33.4365 129.373 33.2754 129.802 32.9639C130.232 32.6523 130.501 32.2764 130.608 31.8467L133.863 32.7705C133.627 33.748 133.014 34.6182 132.015 35.3809C131.016 36.1436 129.781 36.5303 128.299 36.5303ZM144.417 25.0039H147.929V40.8379H144.406V35.1875C143.557 36.0791 142.483 36.5303 141.183 36.5303C139.658 36.5303 138.369 35.9609 137.316 34.833C136.263 33.7051 135.737 32.2979 135.737 30.6113C135.737 28.9248 136.263 27.5176 137.316 26.3896C138.369 25.2617 139.658 24.6924 141.183 24.6924C142.515 24.6924 143.589 25.1436 144.417 26.0352V25.0039ZM141.817 33.4043L141.806 33.415C142.59 33.415 143.235 33.1572 143.74 32.6309C144.245 32.1045 144.503 31.4277 144.503 30.6006C144.503 29.7734 144.245 29.1074 143.74 28.5918C143.235 28.0762 142.59 27.8184 141.817 27.8184C141.054 27.8184 140.431 28.0762 139.937 28.5918C139.443 29.1074 139.196 29.7734 139.196 30.6006C139.196 31.4385 139.443 32.1152 139.937 32.6309C140.431 33.1465 141.054 33.4043 141.817 33.4043ZM158.816 25.0039H162.339V36.2188H158.816V35.0479C157.967 36.0254 156.861 36.5195 155.496 36.5303C154.046 36.5303 152.951 36.0791 152.22 35.1875C151.49 34.2959 151.124 33.082 151.124 31.5459V25.0146H154.637V30.8369C154.637 32.459 155.303 33.2754 156.646 33.2861C157.323 33.2861 157.849 33.0391 158.236 32.5342C158.622 32.0293 158.816 31.3418 158.816 30.4717V25.0039ZM167.371 23.7041L167.35 23.6934C166.791 23.6934 166.319 23.5 165.921 23.1133C165.524 22.7266 165.33 22.2539 165.33 21.6953C165.33 21.1475 165.534 20.6855 165.932 20.3096C166.329 19.9336 166.802 19.7402 167.361 19.7402C167.919 19.7402 168.392 19.9336 168.789 20.3203C169.187 20.707 169.391 21.1689 169.391 21.7061C169.391 22.2646 169.197 22.7373 168.8 23.124C168.403 23.5107 167.93 23.7041 167.371 23.7041ZM165.545 36.208V24.9932H169.058V36.208H165.545ZM176.98 36.5303L177.001 36.5625C175.615 36.5625 174.412 36.2188 173.381 35.5312C172.35 34.8438 171.684 34.0273 171.394 33.0713L174.53 32.1475C174.724 32.6309 175.046 33.0283 175.497 33.3291C175.948 33.6299 176.496 33.7803 177.13 33.7803C177.549 33.7803 177.893 33.6943 178.15 33.5332C178.408 33.3721 178.537 33.1787 178.537 32.9531C178.537 32.5879 178.183 32.2979 177.484 32.0938L174.799 31.2988C172.908 30.7295 171.963 29.6875 171.963 28.1729C171.963 27.1953 172.425 26.3682 173.338 25.7021C174.251 25.0361 175.347 24.7031 176.625 24.7031C177.828 24.7031 178.881 24.9609 179.794 25.4766C180.707 25.9922 181.341 26.6904 181.706 27.5713L178.623 28.4521C178.118 27.7539 177.441 27.3994 176.593 27.3994C176.271 27.3994 175.991 27.4639 175.755 27.5928C175.519 27.7217 175.4 27.8828 175.4 28.0869C175.4 28.377 175.615 28.6025 176.045 28.7529L178.634 29.4727C179.149 29.6123 179.579 29.7627 179.923 29.9131C180.267 30.0635 180.61 30.2568 180.954 30.5039C181.298 30.751 181.556 31.0625 181.728 31.4492C181.899 31.8359 181.985 32.2871 181.985 32.8027C181.985 33.8877 181.524 34.7793 180.589 35.4775C179.654 36.1758 178.451 36.5303 176.98 36.5303ZM186.351 23.7041L186.33 23.6934C185.771 23.6934 185.299 23.5 184.901 23.1133C184.504 22.7266 184.31 22.2539 184.31 21.6953C184.31 21.1475 184.515 20.6855 184.912 20.3096C185.309 19.9336 185.782 19.7402 186.341 19.7402C186.899 19.7402 187.372 19.9336 187.769 20.3203C188.167 20.707 188.371 21.1689 188.371 21.7061C188.371 22.2646 188.178 22.7373 187.78 23.124C187.383 23.5107 186.91 23.7041 186.351 23.7041ZM184.525 36.208V24.9932H188.038V36.208H184.525ZM197.915 33.0498L198.763 35.8535C197.84 36.2188 196.927 36.4014 196.013 36.4014C194.692 36.4014 193.704 36.0254 193.038 35.2734C192.372 34.5215 192.039 33.4902 192.039 32.1689V28.0762H190.299V25.0039H192.039V21.4805H195.562V25.0039H198.581V28.0762H195.562V32.1689C195.562 32.9531 195.949 33.3398 196.722 33.3398C197.152 33.3398 197.55 33.2432 197.915 33.0498ZM202.904 23.7041L202.882 23.6934C202.324 23.6934 201.851 23.5 201.454 23.1133C201.056 22.7266 200.863 22.2539 200.863 21.6953C200.863 21.1475 201.067 20.6855 201.464 20.3096C201.862 19.9336 202.335 19.7402 202.893 19.7402C203.452 19.7402 203.924 19.9336 204.322 20.3203C204.719 20.707 204.923 21.1689 204.923 21.7061C204.923 22.2646 204.73 22.7373 204.333 23.124C203.935 23.5107 203.462 23.7041 202.904 23.7041ZM201.078 36.208V24.9932H204.59V36.208H201.078ZM213.318 36.5303V36.541C211.578 36.541 210.138 35.9717 208.999 34.8438C207.861 33.7158 207.291 32.3086 207.291 30.6221C207.291 28.9355 207.861 27.5283 208.999 26.4004C210.138 25.2725 211.578 24.7031 213.318 24.7031C215.058 24.7031 216.497 25.2617 217.636 26.3896C218.775 27.5176 219.344 28.9248 219.344 30.6113C219.344 32.2979 218.775 33.7051 217.636 34.833C216.497 35.9609 215.058 36.5303 213.318 36.5303ZM213.318 33.3721V33.3828C214.113 33.3828 214.747 33.125 215.219 32.6094C215.692 32.0938 215.928 31.4277 215.928 30.6221C215.928 29.8164 215.692 29.1611 215.219 28.6455C214.747 28.1299 214.113 27.8721 213.318 27.8721C212.523 27.8721 211.889 28.1299 211.416 28.6455C210.944 29.1611 210.707 29.8164 210.707 30.6221C210.707 31.4277 210.944 32.083 211.416 32.5986C211.889 33.1143 212.523 33.3721 213.318 33.3721ZM228.845 24.6924V24.7139C230.295 24.7139 231.391 25.165 232.121 26.0566C232.852 26.9482 233.217 28.1621 233.217 29.6982V36.2295H229.704V30.3965C229.704 28.7744 229.038 27.958 227.696 27.958C227.019 27.958 226.492 28.2051 226.106 28.6992C225.719 29.1934 225.526 29.8701 225.526 30.7402V36.2188H222.002V25.0039H225.526V26.1641C226.374 25.1865 227.481 24.6924 228.845 24.6924Z" fill="#092C2F"/>
</g>
<defs>
<filter id="filter0_b_1251_173" x="-13.4659" y="-13.3839" width="288.877" height="87.2053" filterUnits="userSpaceOnUse" color-interpolation-filters="sRGB">
<feFlood flood-opacity="0" result="BackgroundImageFix"/>
<feGaussianBlur in="BackgroundImageFix" stdDeviation="7.10406"/>
<feComposite in2="SourceAlpha" operator="in" result="effect1_backgroundBlur_1251_173"/>
<feBlend mode="normal" in="SourceGraphic" in2="effect1_backgroundBlur_1251_173" result="shape"/>
</filter>
</defs>
</svg>
