<svg width="357" height="60" viewBox="0 0 357 60" fill="none" xmlns="http://www.w3.org/2000/svg">
<g filter="url(#filter0_b_1251_171)">
<rect x="0.115234" y="0.234375" width="356.461" height="58.788" rx="29.394" fill="#092C2F"/>
<path d="M38.334 20.2246H42.3623L36.3574 35.6289H32.3506L26.3457 20.2246H30.3955L34.3486 30.9453L38.334 20.2246ZM45.6112 23.1143L45.5897 23.1035C45.0311 23.1035 44.5584 22.9102 44.161 22.5234C43.7635 22.1367 43.5702 21.6641 43.5702 21.1055C43.5702 20.5576 43.7743 20.0957 44.1717 19.7197C44.5692 19.3438 45.0418 19.1504 45.6004 19.1504C46.159 19.1504 46.6317 19.3438 47.0291 19.7305C47.4266 20.1172 47.6307 20.5791 47.6307 21.1162C47.6307 21.6748 47.4373 22.1475 47.0399 22.5342C46.6424 22.9209 46.1698 23.1143 45.6112 23.1143ZM43.785 35.6182V24.4033H47.2977V35.6182H43.785ZM54.1882 25.9287L54.1774 25.9072C54.5104 25.2949 54.9831 24.833 55.5846 24.5322C56.1862 24.2314 56.8845 24.1348 57.6901 24.2314V27.5293C56.487 27.3252 55.6061 27.4971 55.0368 28.0449C54.4675 28.5928 54.1882 29.5596 54.1882 30.9453V35.6289H50.6647V24.4141H54.1882V25.9287ZM67.0943 32.46L67.9429 35.2637C67.0191 35.6289 66.106 35.8115 65.1929 35.8115C63.8716 35.8115 62.8833 35.4355 62.2173 34.6836C61.5513 33.9316 61.2183 32.9004 61.2183 31.5791V27.4863H59.478V24.4141H61.2183V20.8906H64.7417V24.4141H67.7603V27.4863H64.7417V31.5791C64.7417 32.3633 65.1284 32.75 65.9019 32.75C66.3316 32.75 66.729 32.6533 67.0943 32.46ZM77.9379 24.4141H81.4613V35.6289H77.9379V34.458C77.0892 35.4355 75.9828 35.9297 74.6185 35.9404C73.1683 35.9404 72.0726 35.4893 71.3421 34.5977C70.6117 33.7061 70.2464 32.4922 70.2464 30.9561V24.4248H73.7591V30.2471C73.7591 31.8691 74.4252 32.6855 75.7679 32.6963C76.4447 32.6963 76.9711 32.4492 77.3578 31.9443C77.7445 31.4395 77.9379 30.752 77.9379 29.8818V24.4141ZM89.5549 35.9404H89.5441C88.0187 35.9404 86.7297 35.3711 85.677 34.2432C84.6242 33.1152 84.0979 31.708 84.0979 30.0215C84.0979 28.335 84.6242 26.9277 85.677 25.7998C86.7297 24.6719 88.0187 24.1025 89.5441 24.1025C90.8762 24.1025 91.9504 24.5537 92.7775 25.4453V24.4141H96.301V35.6289H92.7775V34.5977C91.9289 35.4893 90.8547 35.9404 89.5549 35.9404ZM90.1887 32.8145L90.1779 32.8252C90.9621 32.8252 91.6066 32.5674 92.1115 32.041C92.6164 31.5146 92.8742 30.8379 92.8742 30.0107C92.8742 29.1836 92.6164 28.5176 92.1115 28.002C91.6066 27.4863 90.9621 27.2285 90.1887 27.2285C89.426 27.2285 88.8029 27.4863 88.3088 28.002C87.8146 28.5176 87.5676 29.1836 87.5676 30.0107C87.5676 30.8486 87.8146 31.5254 88.3088 32.041C88.8029 32.5566 89.426 32.8145 90.1887 32.8145ZM99.6036 35.6289V19.5693H103.127V35.6289H99.6036ZM124.846 20.2246V23.5332H119.937V35.6289H116.285V23.5332H111.386V20.2246H124.846ZM130.437 35.9404L130.426 35.9512C128.589 35.9512 127.107 35.4033 125.968 34.3076C124.83 33.2119 124.26 31.7939 124.26 30.043C124.26 28.3242 124.808 26.9062 125.904 25.7891C127 24.6719 128.428 24.1133 130.201 24.1133C132.005 24.1133 133.434 24.6611 134.487 25.7568C135.54 26.8525 136.066 28.2383 136.066 29.9141C136.066 30.3545 136.034 30.7412 135.98 31.0742H127.687C127.956 32.3633 128.89 33.0078 130.491 33.0078C131.565 33.0078 132.317 32.6318 132.736 31.8691L135.905 32.793C135.55 33.5986 134.895 34.3291 133.928 34.9736C132.961 35.6182 131.801 35.9404 130.437 35.9404ZM127.698 28.9688H132.639C132.586 28.4424 132.338 27.9912 131.887 27.6152C131.436 27.2393 130.867 27.0566 130.179 27.0566C129.492 27.0566 128.922 27.25 128.482 27.626C128.042 28.002 127.784 28.4531 127.698 28.9688ZM143.515 35.9404H143.504C141.979 35.9404 140.69 35.3711 139.637 34.2432C138.584 33.1152 138.058 31.708 138.058 30.0215C138.058 28.335 138.584 26.9277 139.637 25.7998C140.69 24.6719 141.979 24.1025 143.504 24.1025C144.836 24.1025 145.911 24.5537 146.738 25.4453V24.4141H150.261V35.6289H146.738V34.5977C145.889 35.4893 144.815 35.9404 143.515 35.9404ZM144.149 32.8145L144.138 32.8252C144.922 32.8252 145.567 32.5674 146.072 32.041C146.577 31.5146 146.834 30.8379 146.834 30.0107C146.834 29.1836 146.577 28.5176 146.072 28.002C145.567 27.4863 144.922 27.2285 144.149 27.2285C143.386 27.2285 142.763 27.4863 142.269 28.002C141.775 28.5176 141.528 29.1836 141.528 30.0107C141.528 30.8486 141.775 31.5254 142.269 32.041C142.763 32.5566 143.386 32.8145 144.149 32.8145ZM167.131 24.1025C168.495 24.1025 169.58 24.5215 170.386 25.3701C171.192 26.2188 171.6 27.4326 171.6 29.0117V35.6289H168.087V29.7959C168.087 28.1738 167.496 27.3574 166.304 27.3574C165.004 27.3574 164.349 28.2598 164.338 30.0645V35.6289H160.825V29.7959C160.825 28.1738 160.235 27.3574 159.042 27.3574C157.742 27.3574 157.087 28.2598 157.087 30.0645V35.6289H153.564V24.4141H157.087V25.5098C157.893 24.5752 158.924 24.1025 160.181 24.1025C161.663 24.1025 162.748 24.5967 163.436 25.5957C164.37 24.5967 165.606 24.1025 167.131 24.1025ZM193.599 20.2246H197.079V35.6289H193.427V26.6055L188.893 32.793L184.382 26.6055V35.6289H180.729V20.2246H184.199L188.915 27.0674L193.599 20.2246ZM205.173 35.9404H205.162C203.636 35.9404 202.347 35.3711 201.295 34.2432C200.242 33.1152 199.716 31.708 199.716 30.0215C199.716 28.335 200.242 26.9277 201.295 25.7998C202.347 24.6719 203.636 24.1025 205.162 24.1025C206.494 24.1025 207.568 24.5537 208.395 25.4453V24.4141H211.919V35.6289H208.395V34.5977C207.547 35.4893 206.472 35.9404 205.173 35.9404ZM205.806 32.8145L205.796 32.8252C206.58 32.8252 207.224 32.5674 207.729 32.041C208.234 31.5146 208.492 30.8379 208.492 30.0107C208.492 29.1836 208.234 28.5176 207.729 28.002C207.224 27.4863 206.58 27.2285 205.806 27.2285C205.044 27.2285 204.421 27.4863 203.927 28.002C203.432 28.5176 203.185 29.1836 203.185 30.0107C203.185 30.8486 203.432 31.5254 203.927 32.041C204.421 32.5566 205.044 32.8145 205.806 32.8145ZM222.064 24.1025V24.124C223.514 24.124 224.61 24.5752 225.34 25.4668C226.071 26.3584 226.436 27.5723 226.436 29.1084V35.6396H222.923V29.8066C222.923 28.1846 222.257 27.3682 220.915 27.3682C220.238 27.3682 219.712 27.6152 219.325 28.1094C218.938 28.6035 218.745 29.2803 218.745 30.1504V35.6289H215.221V24.4141H218.745V25.5742C219.593 24.5967 220.7 24.1025 222.064 24.1025ZM234.422 35.9404H234.412C232.886 35.9404 231.597 35.3711 230.544 34.2432C229.492 33.1152 228.965 31.708 228.965 30.0215C228.965 28.335 229.492 26.9277 230.544 25.7998C231.597 24.6719 232.886 24.1025 234.412 24.1025C235.744 24.1025 236.818 24.5537 237.645 25.4453V24.4141H241.168V35.6289H237.645V34.5977C236.796 35.4893 235.722 35.9404 234.422 35.9404ZM235.056 32.8145L235.045 32.8252C235.83 32.8252 236.474 32.5674 236.979 32.041C237.484 31.5146 237.742 30.8379 237.742 30.0107C237.742 29.1836 237.484 28.5176 236.979 28.002C236.474 27.4863 235.83 27.2285 235.056 27.2285C234.293 27.2285 233.67 27.4863 233.176 28.002C232.682 28.5176 232.435 29.1836 232.435 30.0107C232.435 30.8486 232.682 31.5254 233.176 32.041C233.67 32.5566 234.293 32.8145 235.056 32.8145ZM252.388 24.4141L255.911 24.4355V35.2314C255.911 36.8105 255.374 38.0996 254.3 39.0879C253.226 40.0762 251.797 40.5703 250.003 40.5703C247.457 40.5703 245.642 39.5928 244.568 37.6377L247.608 36.542C248.113 37.3262 248.94 37.7129 250.089 37.7129C250.83 37.7129 251.4 37.4873 251.786 37.0361C252.173 36.585 252.366 35.9834 252.366 35.2422V34.168C251.539 35.0596 250.508 35.5107 249.262 35.5107C247.683 35.5107 246.372 34.9629 245.341 33.8672C244.31 32.7715 243.794 31.418 243.794 29.7959C243.794 28.0879 244.31 26.7129 245.341 25.6709C246.372 24.6289 247.683 24.1025 249.283 24.1025C250.53 24.1025 251.561 24.5537 252.388 25.4453V24.4141ZM249.896 32.374H249.885C250.658 32.374 251.282 32.1377 251.754 31.665C252.227 31.1924 252.463 30.5801 252.463 29.8174C252.463 29.0547 252.227 28.4424 251.754 27.9697C251.282 27.4971 250.658 27.2607 249.885 27.2607C249.112 27.2607 248.478 27.4971 247.994 27.9697C247.511 28.4424 247.275 29.0547 247.275 29.8174C247.275 30.5801 247.522 31.1924 248.005 31.665C248.489 32.1377 249.122 32.374 249.896 32.374ZM264.703 35.9404L264.693 35.9512C262.856 35.9512 261.373 35.4033 260.234 34.3076C259.096 33.2119 258.526 31.7939 258.526 30.043C258.526 28.3242 259.074 26.9062 260.17 25.7891C261.266 24.6719 262.694 24.1133 264.467 24.1133C266.272 24.1133 267.7 24.6611 268.753 25.7568C269.806 26.8525 270.332 28.2383 270.332 29.9141C270.332 30.3545 270.3 30.7412 270.246 31.0742H261.953C262.222 32.3633 263.156 33.0078 264.757 33.0078C265.831 33.0078 266.583 32.6318 267.002 31.8691L270.171 32.793C269.817 33.5986 269.161 34.3291 268.194 34.9736C267.228 35.6182 266.068 35.9404 264.703 35.9404ZM261.964 28.9688H266.905C266.852 28.4424 266.605 27.9912 266.153 27.6152C265.702 27.2393 265.133 27.0566 264.445 27.0566C263.758 27.0566 263.189 27.25 262.748 27.626C262.308 28.002 262.05 28.4531 261.964 28.9688ZM286.558 24.1025C287.922 24.1025 289.007 24.5215 289.812 25.3701C290.618 26.2188 291.026 27.4326 291.026 29.0117V35.6289H287.514V29.7959C287.514 28.1738 286.923 27.3574 285.73 27.3574C284.431 27.3574 283.775 28.2598 283.765 30.0645V35.6289H280.252V29.7959C280.252 28.1738 279.661 27.3574 278.469 27.3574C277.169 27.3574 276.514 28.2598 276.514 30.0645V35.6289H272.99V24.4141H276.514V25.5098C277.319 24.5752 278.351 24.1025 279.607 24.1025C281.09 24.1025 282.175 24.5967 282.862 25.5957C283.797 24.5967 285.032 24.1025 286.558 24.1025ZM299.711 35.9404L299.7 35.9512C297.863 35.9512 296.381 35.4033 295.242 34.3076C294.103 33.2119 293.534 31.7939 293.534 30.043C293.534 28.3242 294.082 26.9062 295.178 25.7891C296.273 24.6719 297.702 24.1133 299.474 24.1133C301.279 24.1133 302.708 24.6611 303.761 25.7568C304.813 26.8525 305.34 28.2383 305.34 29.9141C305.34 30.3545 305.307 30.7412 305.254 31.0742H296.961C297.229 32.3633 298.164 33.0078 299.764 33.0078C300.839 33.0078 301.591 32.6318 302.01 31.8691L305.179 32.793C304.824 33.5986 304.169 34.3291 303.202 34.9736C302.235 35.6182 301.075 35.9404 299.711 35.9404ZM296.971 28.9688H301.913C301.859 28.4424 301.612 27.9912 301.161 27.6152C300.71 27.2393 300.14 27.0566 299.453 27.0566C298.765 27.0566 298.196 27.25 297.756 27.626C297.315 28.002 297.057 28.4531 296.971 28.9688ZM314.84 24.1025V24.124C316.291 24.124 317.386 24.5752 318.117 25.4668C318.847 26.3584 319.213 27.5723 319.213 29.1084V35.6396H315.7V29.8066C315.7 28.1846 315.034 27.3682 313.691 27.3682C313.014 27.3682 312.488 27.6152 312.101 28.1094C311.714 28.6035 311.521 29.2803 311.521 30.1504V35.6289H307.998V24.4141H311.521V25.5742C312.37 24.5967 313.476 24.1025 314.84 24.1025ZM328.917 32.46L329.766 35.2637C328.842 35.6289 327.929 35.8115 327.016 35.8115C325.695 35.8115 324.707 35.4355 324.04 34.6836C323.374 33.9316 323.041 32.9004 323.041 31.5791V27.4863H321.301V24.4141H323.041V20.8906H326.565V24.4141H329.583V27.4863H326.565V31.5791C326.565 32.3633 326.952 32.75 327.725 32.75C328.155 32.75 328.552 32.6533 328.917 32.46Z" fill="white"/>
</g>
<defs>
<filter id="filter0_b_1251_171" x="-14.0929" y="-13.9738" width="384.877" height="87.2053" filterUnits="userSpaceOnUse" color-interpolation-filters="sRGB">
<feFlood flood-opacity="0" result="BackgroundImageFix"/>
<feGaussianBlur in="BackgroundImageFix" stdDeviation="7.10406"/>
<feComposite in2="SourceAlpha" operator="in" result="effect1_backgroundBlur_1251_171"/>
<feBlend mode="normal" in="SourceGraphic" in2="effect1_backgroundBlur_1251_171" result="shape"/>
</filter>
</defs>
</svg>
