<svg width="170" height="60" viewBox="0 0 170 60" fill="none" xmlns="http://www.w3.org/2000/svg">
<g filter="url(#filter0_b_1251_177)">
<rect x="0.539062" y="0.324219" width="169.461" height="58.788" rx="29.394" fill="#D7F427"/>
<path d="M38.7578 20.3145H42.7861L36.7812 35.7188H32.7744L26.7695 20.3145H30.8193L34.7725 31.0352L38.7578 20.3145ZM46.035 23.2041L46.0135 23.1934C45.4549 23.1934 44.9823 23 44.5848 22.6133C44.1873 22.2266 43.994 21.7539 43.994 21.1953C43.994 20.6475 44.1981 20.1855 44.5955 19.8096C44.993 19.4336 45.4657 19.2402 46.0243 19.2402C46.5829 19.2402 47.0555 19.4336 47.453 19.8203C47.8504 20.207 48.0545 20.6689 48.0545 21.2061C48.0545 21.7646 47.8612 22.2373 47.4637 22.624C47.0662 23.0107 46.5936 23.2041 46.035 23.2041ZM44.2088 35.708V24.4932H47.7215V35.708H44.2088ZM54.612 26.0186L54.6012 25.9971C54.9343 25.3848 55.4069 24.9229 56.0085 24.6221C56.61 24.3213 57.3083 24.2246 58.1139 24.3213V27.6191C56.9108 27.415 56.03 27.5869 55.4606 28.1348C54.8913 28.6826 54.612 29.6494 54.612 31.0352V35.7188H51.0886V24.5039H54.612V26.0186ZM67.5181 32.5498L68.3667 35.3535C67.4429 35.7188 66.5298 35.9014 65.6167 35.9014C64.2954 35.9014 63.3071 35.5254 62.6411 34.7734C61.9751 34.0215 61.6421 32.9902 61.6421 31.6689V27.5762H59.9019V24.5039H61.6421V20.9805H65.1655V24.5039H68.1841V27.5762H65.1655V31.6689C65.1655 32.4531 65.5523 32.8398 66.3257 32.8398C66.7554 32.8398 67.1529 32.7432 67.5181 32.5498ZM78.3617 24.5039H81.8851V35.7188H78.3617V34.5479C77.513 35.5254 76.4066 36.0195 75.0423 36.0303C73.5921 36.0303 72.4964 35.5791 71.766 34.6875C71.0355 33.7959 70.6703 32.582 70.6703 31.0459V24.5146H74.183V30.3369C74.183 31.959 74.849 32.7754 76.1918 32.7861C76.8685 32.7861 77.3949 32.5391 77.7816 32.0342C78.1683 31.5293 78.3617 30.8418 78.3617 29.9717V24.5039ZM89.9787 36.0303H89.968C88.4426 36.0303 87.1535 35.4609 86.1008 34.333C85.048 33.2051 84.5217 31.7979 84.5217 30.1113C84.5217 28.4248 85.048 27.0176 86.1008 25.8896C87.1535 24.7617 88.4426 24.1924 89.968 24.1924C91.3 24.1924 92.3742 24.6436 93.2014 25.5352V24.5039H96.7248V35.7188H93.2014V34.6875C92.3527 35.5791 91.2785 36.0303 89.9787 36.0303ZM90.6125 32.9043L90.6018 32.915C91.3859 32.915 92.0305 32.6572 92.5354 32.1309C93.0402 31.6045 93.298 30.9277 93.298 30.1006C93.298 29.2734 93.0402 28.6074 92.5354 28.0918C92.0305 27.5762 91.3859 27.3184 90.6125 27.3184C89.8498 27.3184 89.2268 27.5762 88.7326 28.0918C88.2385 28.6074 87.9914 29.2734 87.9914 30.1006C87.9914 30.9385 88.2385 31.6152 88.7326 32.1309C89.2268 32.6465 89.8498 32.9043 90.6125 32.9043ZM100.027 35.7188V19.6592H103.551V35.7188H100.027ZM122.52 20.3145H126.173V35.7188H122.52V29.542H116.451V35.7188H112.799V20.3145H116.451V26.2334H122.52V20.3145ZM138.993 35.7188L135.706 30.6592H133.063V35.7188H129.454V20.3145H137.156C138.778 20.3145 140.099 20.8408 141.109 21.8936C142.119 22.9463 142.624 24.1494 142.624 25.5137C142.624 26.5234 142.344 27.458 141.796 28.3066C141.249 29.1553 140.475 29.7891 139.476 30.1973L143.193 35.7188H138.993ZM133.063 23.5801L133.052 27.458H136.877C137.51 27.458 138.037 27.2646 138.445 26.8887C138.853 26.5127 139.057 26.0508 139.057 25.5029C139.057 24.9766 138.864 24.5254 138.466 24.1494C138.069 23.7734 137.596 23.5801 137.038 23.5801H133.063Z" fill="black"/>
</g>
<defs>
<filter id="filter0_b_1251_177" x="-13.6691" y="-13.8839" width="197.877" height="87.2053" filterUnits="userSpaceOnUse" color-interpolation-filters="sRGB">
<feFlood flood-opacity="0" result="BackgroundImageFix"/>
<feGaussianBlur in="BackgroundImageFix" stdDeviation="7.10406"/>
<feComposite in2="SourceAlpha" operator="in" result="effect1_backgroundBlur_1251_177"/>
<feBlend mode="normal" in="SourceGraphic" in2="effect1_backgroundBlur_1251_177" result="shape"/>
</filter>
</defs>
</svg>
